<svg width="71" height="30" viewBox="0 0 71 30" fill="none" xmlns="http://www.w3.org/2000/svg">
<g clip-path="url(#clip0_109_2)">
<path d="M9.21466 25.1229L9.47774 25.2511L9.28406 24.9905L9.21466 25.1229Z" fill="#FFD215"/>
<path opacity="0.5" d="M11.6466 18.3334L15.9461 15.4154L20.1543 19.4481L21.8032 21.2204L22.3449 20.66L25.8903 16.9995L29.4461 11.2896L32.6859 6.51546L33.7507 4.20026L40.2014 13.0847L47.1989 18.8825L51.7625 16.6821L55.8123 21.3766L61.9646 23.5263L63.2397 24.4166C67.7814 21.8595 70.4827 18.654 70.4827 15.1703C70.4827 6.79464 54.849 1.52588e-05 35.5653 1.52588e-05C16.2816 1.52588e-05 0.647949 6.79258 0.647949 15.1703C0.647949 18.4285 3.01361 21.4459 7.03752 23.9182L7.75426 23.3195L11.6466 18.3334Z" fill="white"/>
<path d="M10.6647 26.8518L20.8151 29.2652C20.8151 29.2652 20.3293 29.0181 19.6695 28.68C15.7948 27.8186 12.3426 26.6512 9.47565 25.2511L10.6647 26.8518Z" fill="white"/>
<path d="M0.647949 29.2652H9.21468L8.93813 28.7875L8.14371 27.2013L9.21468 25.128C8.44408 24.7434 7.71905 24.3418 7.03959 23.9234L0.647949 29.2652Z" fill="white"/>
<path d="M63.2437 24.4167C62.913 24.6042 62.5725 24.7872 62.2225 24.9657L66.0951 27.6718L66.584 27.9872C65.4188 27.6697 63.8558 27.2478 63.7585 27.2478C63.6031 27.2478 61.2727 26.9893 60.9619 26.8342C60.8231 26.7649 60.1074 26.524 59.3565 26.2717C59.1887 26.3406 59.0192 26.4079 58.848 26.4733L60.3405 27.3512L62.1531 28.3346L62.8781 29.2652H70.4826L66.6814 26.8228L63.2437 24.4167Z" fill="white"/>
<path d="M57.4395 25.6451L58.8481 26.4723C59.0193 26.4034 59.1888 26.3362 59.3566 26.2707C58.4245 25.9625 57.4395 25.6451 57.4395 25.6451Z" fill="white"/>
<path d="M13.6352 24.9212L13.1515 21.267L15.2924 22.1635L13.5658 19.2682L15.8321 16.742L21.7835 22.7239L26.2694 25.8157L25.7173 20.7127L29.1705 22.7125C29.1705 22.7125 30.9665 23.7466 31.242 24.367C31.5175 24.9874 33.848 26.0214 33.848 26.0214L43.553 27.8134C43.553 27.8134 36.6984 24.0216 36.4912 24.0216C36.2841 24.0216 33.8542 21.1977 33.8542 21.1977L33.182 18.716L37.1179 20.5773L32.2146 16.6479L31.5932 14.6481L31.3394 11.3227L35.5663 13.6844L33.1126 9.34147L34.8558 9.10054L33.9578 6.24557L34.224 6.61162L39.4442 13.8044L43.5085 17.1701L41.7011 16.7379L36.34 14.0608L40.8777 17.4007L47.0497 20.1016L52.5703 23.7828L55.574 24.9719C55.574 24.9719 53.4497 23.1613 53.1918 23.1106C52.9339 23.06 52.1042 21.3011 52.1042 21.3011L51.4973 17.9581L55.2135 22.2607L61.4923 24.4559L62.2173 24.9657C62.5674 24.7865 62.9078 24.6034 63.2386 24.4166L61.9636 23.5263L55.8122 21.3766L51.7583 16.6821L47.1947 18.8825L40.1972 13.0847L33.7506 4.20026L32.6859 6.51649L29.446 11.2906L25.8903 16.9995L22.347 20.66L21.8053 21.2204L20.1543 19.4502L15.946 15.4174L11.6466 18.3334L7.75318 23.3195L7.03644 23.9182C7.71589 24.336 8.44092 24.7375 9.21152 25.1229L9.28092 24.9905L9.47461 25.2511C12.3416 26.6512 15.7927 27.8186 19.6685 28.6799C18.322 27.9913 16.2567 26.9221 16.1179 26.7825C15.9139 26.5757 13.6352 24.9212 13.6352 24.9212Z" fill="white"/>
<path d="M31.2709 29.2642H37.3498L27.9835 28.1743L31.2709 29.2642Z" fill="white"/>
<path d="M54.066 29.2652H57.8403L54.8149 27.8269C54.1064 28.0337 53.3814 28.2264 52.6398 28.4049L54.066 29.2652Z" fill="white"/>
<path d="M45.5343 23.0041L42.2437 22.9762L39.1882 21.7871L41.8066 23.6483L44.541 23.9968L51.29 27.5983L52.6365 28.408C53.3801 28.226 54.1052 28.0333 54.8116 27.83L50.4759 25.7671L45.5343 23.0041Z" fill="white"/>
<path d="M16.2898 22.7828L21.2925 25.0277L18.7911 22.7828H16.2898Z" fill="white"/>
</g>
<defs>
<clipPath id="clip0_109_2">
<rect width="69.8347" height="29.2652" fill="white" transform="translate(0.647949 1.52588e-05)"/>
</clipPath>
</defs>
</svg>
