<svg width="96" height="56" viewBox="0 0 96 56" fill="none" xmlns="http://www.w3.org/2000/svg">
<g clip-path="url(#clip0_8_31)">
<path d="M22.2147 25.1229L22.4777 25.2511L22.2841 24.9905L22.2147 25.1229Z" fill="#FFD215"/>
<path opacity="0.5" d="M24.6466 18.3334L28.9461 15.4154L33.1543 19.4481L34.8032 21.2204L35.3449 20.66L38.8903 16.9995L42.4461 11.2896L45.6859 6.51546L46.7507 4.20026L53.2014 13.0847L60.1989 18.8825L64.7625 16.6821L68.8123 21.3766L74.9646 23.5263L76.2397 24.4166C80.7814 21.8595 83.4827 18.654 83.4827 15.1703C83.4827 6.79464 67.849 1.52588e-05 48.5653 1.52588e-05C29.2816 1.52588e-05 13.6479 6.79258 13.6479 15.1703C13.6479 18.4285 16.0136 21.4459 20.0375 23.9182L20.7543 23.3195L24.6466 18.3334Z" fill="white"/>
<path d="M23.6647 26.8518L33.8151 29.2652C33.8151 29.2652 33.3293 29.0181 32.6695 28.68C28.7948 27.8186 25.3426 26.6512 22.4756 25.2511L23.6647 26.8518Z" fill="white"/>
<path d="M13.6479 29.2652H22.2147L21.9381 28.7875L21.1437 27.2013L22.2147 25.128C21.4441 24.7434 20.719 24.3418 20.0396 23.9234L13.6479 29.2652Z" fill="white"/>
<path d="M76.2437 24.4167C75.913 24.6042 75.5725 24.7872 75.2225 24.9657L79.0951 27.6718L79.584 27.9872C78.4188 27.6697 76.8558 27.2478 76.7585 27.2478C76.6031 27.2478 74.2727 26.9893 73.9619 26.8342C73.8231 26.7649 73.1074 26.524 72.3565 26.2717C72.1887 26.3406 72.0192 26.4079 71.848 26.4733L73.3405 27.3512L75.1531 28.3346L75.8781 29.2652H83.4826L79.6814 26.8228L76.2437 24.4167Z" fill="white"/>
<path d="M70.4395 25.6451L71.8481 26.4723C72.0193 26.4034 72.1888 26.3362 72.3566 26.2707C71.4245 25.9625 70.4395 25.6451 70.4395 25.6451Z" fill="white"/>
<path d="M26.6352 24.9212L26.1515 21.267L28.2924 22.1635L26.5658 19.2682L28.8321 16.742L34.7835 22.7239L39.2694 25.8157L38.7173 20.7127L42.1705 22.7125C42.1705 22.7125 43.9665 23.7466 44.242 24.367C44.5175 24.9874 46.848 26.0215 46.848 26.0215L56.553 27.8134C56.553 27.8134 49.6984 24.0216 49.4912 24.0216C49.2841 24.0216 46.8542 21.1977 46.8542 21.1977L46.182 18.716L50.1179 20.5773L45.2146 16.6479L44.5932 14.6481L44.3394 11.3227L48.5663 13.6844L46.1126 9.34147L47.8558 9.10054L46.9578 6.24557L47.224 6.61162L52.4442 13.8044L56.5085 17.1701L54.7011 16.7379L49.34 14.0608L53.8777 17.4007L60.0497 20.1016L65.5703 23.7828L68.574 24.9719C68.574 24.9719 66.4497 23.1613 66.1918 23.1106C65.9339 23.06 65.1042 21.3011 65.1042 21.3011L64.4973 17.9581L68.2135 22.2607L74.4923 24.4559L75.2173 24.9657C75.5674 24.7865 75.9078 24.6034 76.2386 24.4166L74.9636 23.5263L68.8122 21.3766L64.7583 16.6821L60.1947 18.8825L53.1972 13.0847L46.7506 4.20026L45.6859 6.51649L42.446 11.2906L38.8903 16.9995L35.347 20.66L34.8053 21.2204L33.1543 19.4502L28.946 15.4174L24.6466 18.3334L20.7532 23.3195L20.0364 23.9182C20.7159 24.336 21.4409 24.7375 22.2115 25.1229L22.2809 24.9905L22.4746 25.2511C25.3416 26.6512 28.7927 27.8186 32.6685 28.6799C31.322 27.9913 29.2567 26.9221 29.1179 26.7825C28.9139 26.5757 26.6352 24.9212 26.6352 24.9212Z" fill="white"/>
<path d="M44.2709 29.2642H50.3498L40.9835 28.1743L44.2709 29.2642Z" fill="white"/>
<path d="M67.066 29.2652H70.8403L67.8149 27.8269C67.1064 28.0337 66.3814 28.2264 65.6398 28.4049L67.066 29.2652Z" fill="white"/>
<path d="M58.5343 23.0041L55.2437 22.9762L52.1882 21.7871L54.8066 23.6483L57.541 23.9968L64.29 27.5983L65.6365 28.408C66.3801 28.226 67.1052 28.0333 67.8116 27.83L63.4759 25.7671L58.5343 23.0041Z" fill="white"/>
<path d="M29.2898 22.7828L34.2925 25.0277L31.7911 22.7828H29.2898Z" fill="white"/>
</g>
<defs>
<clipPath id="clip0_8_31">
<rect width="69.8347" height="29.2652" fill="white" transform="translate(13.6479 1.52588e-05)"/>
</clipPath>
</defs>
</svg>
