<svg width="30" height="30" viewBox="0 0 53 53" fill="none" xmlns="http://www.w3.org/2000/svg">
<path fill-rule="evenodd" clip-rule="evenodd" d="M16.2374 9.44173C12.4675 8.61009 9.07816 8.78846 7.0021 9.05865C6.93585 9.06724 6.86541 9.09672 6.78922 9.19336C6.70508 9.29989 6.62492 9.48389 6.62492 9.72906V38.792C6.62492 39.4256 7.16861 39.917 7.73394 39.8982C10.425 39.8096 14.3793 39.8902 18.11 40.7917C20.6735 41.4111 22.7234 42.4455 24.2916 43.5088V14.2783C24.2916 13.7478 24.1706 13.4788 24.0829 13.3656C23.8095 13.013 22.9725 12.26 21.5316 11.447C20.1404 10.6621 18.3291 9.90318 16.2374 9.44173ZM6.43213 4.67893C8.83855 4.36572 12.7709 4.15416 17.1887 5.12877C19.7395 5.69149 21.9594 6.61723 23.7017 7.6004C25.3946 8.55546 26.7938 9.654 27.5732 10.6593C28.4702 11.8161 28.7083 13.1741 28.7083 14.2783V48.5833C28.7083 49.5574 28.07 50.4162 27.1377 50.6976C26.2097 50.9774 25.2083 50.6194 24.6677 49.8162L24.6637 49.8101L24.6661 49.8138L24.6677 49.8162C24.6677 49.8162 24.6648 49.812 24.6621 49.8081C24.6526 49.7946 24.6328 49.767 24.6027 49.7268C24.5425 49.6464 24.4409 49.5161 24.2973 49.349C24.0096 49.014 23.5564 48.5345 22.9306 48.0087C21.6805 46.9582 19.7537 45.7326 17.0725 45.0849C13.9018 44.3186 10.4014 44.2294 7.87947 44.3124C4.83241 44.4129 2.20825 41.9351 2.20825 38.792V9.72906C2.20825 7.39639 3.76601 5.02588 6.43213 4.67893Z" fill="white"/>
<path fill-rule="evenodd" clip-rule="evenodd" d="M36.7628 9.44173C40.5325 8.61009 43.9219 8.78846 45.998 9.05865C46.0641 9.06724 46.1347 9.09672 46.2108 9.19336C46.2948 9.29989 46.3751 9.48389 46.3751 9.72906V38.792C46.3751 39.4256 45.8314 39.917 45.266 39.8982C42.5751 39.8096 38.6207 39.8902 34.89 40.7917C32.3265 41.4111 30.2766 42.4455 28.7084 43.5088V14.2783C28.7084 13.7478 28.8294 13.4788 28.9171 13.3656C29.1905 13.013 30.0275 12.26 31.4685 11.447C32.8597 10.6621 34.671 9.90318 36.7628 9.44173ZM46.568 4.67893C44.1614 4.36572 40.229 4.15416 35.8113 5.12877C33.2605 5.69149 31.0407 6.61723 29.2983 7.6004C27.6054 8.55546 26.2062 9.654 25.4268 10.6593C24.5298 11.8161 24.2917 13.1741 24.2917 14.2783V48.5833C24.2917 49.5574 24.93 50.4162 25.8623 50.6976C26.7903 50.9774 27.7917 50.6194 28.3323 49.8162L28.3363 49.8101L28.3339 49.8138L28.3323 49.8162C28.3323 49.8162 28.3352 49.812 28.3379 49.8081C28.3474 49.7946 28.3672 49.767 28.3973 49.7268C28.4576 49.6464 28.5591 49.5161 28.7027 49.349C28.9904 49.014 29.4436 48.5345 30.0694 48.0087C31.3196 46.9582 33.2463 45.7326 35.9273 45.0849C39.0982 44.3186 42.5986 44.2294 45.1206 44.3124C48.1675 44.4129 50.7917 41.9351 50.7917 38.792V9.72906C50.7917 7.39639 49.2339 5.02588 46.568 4.67893Z" fill="white"/>
</svg>
