<svg width="30" height="30" viewBox="0 0 51 51" fill="none" xmlns="http://www.w3.org/2000/svg">
<path d="M17 21.25C19.3472 21.25 21.25 19.3472 21.25 17C21.25 14.6528 19.3472 12.75 17 12.75C14.6528 12.75 12.75 14.6528 12.75 17C12.75 19.3472 14.6528 21.25 17 21.25Z" fill="white"/>
<path fill-rule="evenodd" clip-rule="evenodd" d="M4.25 10.625C4.25 7.10419 7.10419 4.25 10.625 4.25H40.375C43.8959 4.25 46.75 7.10419 46.75 10.625V40.375C46.75 43.8959 43.8959 46.75 40.375 46.75H10.625C7.10419 46.75 4.25 43.8959 4.25 40.375V10.625ZM10.625 8.5C9.45141 8.5 8.5 9.4514 8.5 10.625V37.3696L19.7473 26.1222C20.5772 25.2924 21.9226 25.2924 22.7526 26.1222L26.5625 29.9321L42.5 13.9946V10.625C42.5 9.4514 41.5486 8.5 40.375 8.5H10.625ZM42.5 20.005L28.0651 34.4401C27.2351 35.2699 25.8897 35.2699 25.0597 34.4401L21.2499 30.6302L9.62795 42.252C9.92528 42.4103 10.2647 42.5 10.625 42.5H40.375C41.5486 42.5 42.5 41.5486 42.5 40.375V20.005Z" fill="white"/>
</svg>
