<svg width="30" height="30" viewBox="0 0 51 51" fill="none" xmlns="http://www.w3.org/2000/svg">
<path fill-rule="evenodd" clip-rule="evenodd" d="M25.4999 3.06C37.8932 3.06 47.9399 13.1067 47.9399 25.5C47.9399 37.8932 37.8932 47.94 25.4999 47.94C13.1067 47.94 3.05995 37.8932 3.05995 25.5C3.05995 13.1067 13.1067 3.06 25.4999 3.06ZM30.1395 7.73125C37.3956 9.6206 42.9052 15.837 43.7479 23.46H35.5978C35.1404 17.8231 33.2538 12.4122 30.1395 7.73125ZM20.8604 7.73125C17.7461 12.4122 15.8595 17.8231 15.4021 23.46H7.25194C8.09467 15.837 13.6043 9.6206 20.8604 7.73125ZM19.4974 23.46C20.0099 17.9251 22.0938 12.6519 25.4999 8.26359C28.9061 12.6519 30.99 17.9251 31.5025 23.46H19.4974ZM31.5025 27.54H19.4974C20.0099 33.0749 22.0938 38.3481 25.4999 42.7364C28.9061 38.3481 30.99 33.0749 31.5025 27.54ZM35.5978 27.54H43.7479C42.9052 35.1631 37.3956 41.3794 30.1395 43.2688C33.2538 38.5878 35.1404 33.1769 35.5978 27.54ZM20.8604 43.2688C17.7461 38.5878 15.8595 33.1769 15.4021 27.54H7.25194C8.09467 35.1631 13.6043 41.3794 20.8604 43.2688Z" fill="white"/>
</svg>
