<svg width="30" height="30" viewBox="0 0 49 49" fill="none" xmlns="http://www.w3.org/2000/svg">
<path fill-rule="evenodd" clip-rule="evenodd" d="M44.8019 6.79953C45.061 6.05924 44.8732 5.23598 44.3187 4.68138C43.7639 4.12678 42.9407 3.93891 42.2004 4.19801L3.79748 17.6391C1.17951 18.5554 1.03079 22.2017 3.56538 23.3281L18.8698 30.1301L25.6719 45.4346C26.7983 47.9692 30.4447 47.8205 31.361 45.2025L44.8019 6.79953ZM19.9645 26.1482L7.57672 20.6425L39.5471 9.45292L28.3575 41.4234L22.8518 29.0356L30.027 21.8603C30.8243 21.0631 30.8243 19.7703 30.027 18.973C29.2297 18.1757 27.9369 18.1757 27.1397 18.973L19.9645 26.1482Z" fill="white"/>
</svg>
