<svg width="60" height="60" viewBox="0 0 60 60" fill="none" xmlns="http://www.w3.org/2000/svg">
<path d="M29.8333 59.6667C46.3098 59.6667 59.6667 46.3098 59.6667 29.8333C59.6667 13.3568 46.3098 0 29.8333 0C13.3568 0 0 13.3568 0 29.8333C0 46.3098 13.3568 59.6667 29.8333 59.6667Z" fill="url(#paint0_linear_137_645)"/>
<path d="M12.4162 29.5747L32.5063 21.2973C34.4895 20.435 41.2149 17.6759 41.2149 17.6759C41.2149 17.6759 44.3189 16.4688 44.0603 19.4004C43.974 20.6075 43.2843 24.8324 42.5945 29.4023L40.4389 42.9394C40.4389 42.9394 40.2664 44.9225 38.8006 45.2674C37.3348 45.6123 34.9206 44.0603 34.4895 43.7154C34.1446 43.4567 28.0227 39.5767 25.7809 37.6797C25.1773 37.1624 24.4875 36.1277 25.8671 34.9206C28.9712 32.0752 32.6788 28.5401 34.9206 26.2982C35.9553 25.2636 36.9899 22.8493 32.6788 25.7809L20.5212 33.9721C20.5212 33.9721 19.1417 34.8344 16.555 34.0584C13.9683 33.2823 10.9504 32.2477 10.9504 32.2477C10.9504 32.2477 8.88107 30.9543 12.4162 29.5747Z" fill="white"/>
<defs>
<linearGradient id="paint0_linear_137_645" x1="39.7801" y1="9.94675" x2="24.8634" y2="44.75" gradientUnits="userSpaceOnUse">
<stop stop-color="#37AEE2"/>
<stop offset="1" stop-color="#1E96C8"/>
</linearGradient>
</defs>
</svg>
